<?xml version="1.0" encoding="UTF-8"?>
<svg id="Layer_2" data-name="Layer 2" xmlns="http://www.w3.org/2000/svg" viewBox="0 0 1769.68 148.83">
  <defs>
    <style>
      .cls-1 {
        fill: #fff;
      }

      .cls-2 {
        fill: #c9a227;
      }
    </style>
  </defs>
  <g id="Layer_1-2" data-name="Layer 1">
    <g>
      <path class="cls-1" d="M1002.4,129.55h50.74v15.39h-69.66V0h18.92v129.55Z"/>
      <path class="cls-1" d="M1227.12,144.93l-45.54-124.97-45.54,124.97h-20.17L1170.57,0h21.83l54.69,144.93h-19.96Z"/>
      <path class="cls-1" d="M1423.78,145.14h-18.92l-76.11-115.41v115.41h-18.92V0h18.92l76.11,115.2V0h18.92v145.14Z"/>
      <path class="cls-1" d="M1572.71,8.84c11.57,5.89,20.45,14.32,26.62,25.26,6.17,10.95,9.25,23.84,9.25,38.68s-3.09,27.69-9.25,38.57c-6.17,10.88-15.04,19.2-26.62,24.95-11.58,5.75-25.26,8.63-41.07,8.63h-45.12V0h45.12c15.8,0,29.49,2.95,41.07,8.84ZM1574.48,114.47c9.84-9.91,14.76-23.81,14.76-41.69s-4.96-32.09-14.87-42.21c-9.91-10.12-24.16-15.18-42.73-15.18h-26.2v113.95h26.2c18.71,0,32.99-4.95,42.84-14.87Z"/>
      <path class="cls-1" d="M1695.75,143.17c-7.56-3.4-13.48-8.11-17.78-14.14-4.3-6.03-6.52-13-6.65-20.9h20.17c.69,6.79,3.5,12.51,8.42,17.16,4.92,4.65,12.09,6.97,21.52,6.97s16.12-2.25,21.31-6.76c5.2-4.5,7.8-10.29,7.8-17.36,0-5.54-1.53-10.05-4.57-13.52-3.05-3.46-6.86-6.1-11.44-7.9-4.58-1.8-10.75-3.74-18.51-5.82-9.57-2.49-17.23-4.99-22.98-7.49-5.75-2.5-10.68-6.41-14.76-11.75-4.09-5.34-6.13-12.51-6.13-21.52,0-7.9,2.01-14.9,6.03-21,4.02-6.1,9.67-10.81,16.95-14.14,7.28-3.33,15.63-4.99,25.06-4.99,13.58,0,24.71,3.4,33.37,10.19,8.66,6.79,13.55,15.8,14.66,27.03h-20.79c-.7-5.54-3.61-10.43-8.73-14.66-5.13-4.23-11.92-6.34-20.38-6.34-7.9,0-14.35,2.05-19.34,6.13-4.99,4.09-7.49,9.81-7.49,17.16,0,5.27,1.49,9.56,4.47,12.89,2.98,3.33,6.65,5.86,11.02,7.59,4.37,1.73,10.5,3.71,18.4,5.93,9.56,2.63,17.26,5.23,23.08,7.8,5.82,2.57,10.81,6.52,14.97,11.85,4.16,5.34,6.24,12.58,6.24,21.73,0,7.07-1.87,13.72-5.61,19.96-3.74,6.24-9.29,11.3-16.64,15.18-7.35,3.88-16.01,5.82-25.99,5.82s-18.13-1.7-25.68-5.09Z"/>
      <path class="cls-2" d="M19.02,15.68v48.7h53.09v15.68H19.02v50.17h59.37v15.68H0V0h78.39v15.68H19.02Z"/>
      <path class="cls-2" d="M273.03,0l-54.98,145.7h-21.95L141.13,0h20.28l45.78,125.63L252.96,0h20.07Z"/>
      <path class="cls-2" d="M900.67,145.7l-45.78-125.63-45.78,125.63h-20.28L843.81,0h21.95l54.98,145.7h-20.07Z"/>
      <path class="cls-2" d="M354.79,0v145.7h-19.02V0h19.02Z"/>
      <path class="cls-2" d="M453.69,139.32c-11.15-6.34-19.96-15.19-26.44-26.55-6.48-11.36-9.72-24.14-9.72-38.36s3.24-27,9.72-38.36c6.48-11.36,15.29-20.2,26.44-26.55,11.15-6.34,23.48-9.51,37-9.51s26.06,3.17,37.21,9.51c11.15,6.34,19.93,15.15,26.34,26.44,6.41,11.29,9.62,24.11,9.62,38.46s-3.21,27.17-9.62,38.46c-6.41,11.29-15.19,20.1-26.34,26.44-11.15,6.34-23.55,9.51-37.21,9.51s-25.85-3.17-37-9.51ZM518.18,125.21c8.15-4.74,14.56-11.5,19.23-20.28,4.67-8.78,7-18.95,7-30.52s-2.34-21.91-7-30.62c-4.67-8.71-11.05-15.43-19.13-20.17-8.08-4.74-17.28-7.11-27.59-7.11s-19.51,2.37-27.59,7.11c-8.08,4.74-14.46,11.46-19.13,20.17-4.67,8.71-7,18.92-7,30.62s2.33,21.74,7,30.52c4.67,8.78,11.08,15.54,19.23,20.28,8.15,4.74,17.31,7.11,27.49,7.11s19.34-2.37,27.49-7.11Z"/>
      <path class="cls-2" d="M703.31,145.7l-34.7-59.58h-22.99v59.58h-19.02V0h47.03c11.01,0,20.31,1.88,27.91,5.64,7.59,3.76,13.27,8.85,17.04,15.26,3.76,6.41,5.64,13.73,5.64,21.95,0,10.03-2.89,18.88-8.67,26.55-5.78,7.67-14.46,12.75-26.02,15.26l36.58,61.04h-22.78ZM645.62,70.86h28.01c10.31,0,18.05-2.54,23.2-7.63,5.15-5.08,7.73-11.88,7.73-20.38s-2.54-15.33-7.63-20.07c-5.09-4.74-12.86-7.11-23.31-7.11h-28.01v55.19Z"/>
    </g>
  </g>
</svg>